<svg width="200" height="200" viewBox="0 0 200 200" fill="none" xmlns="http://www.w3.org/2000/svg">
<path d="M132.838 110.412C178.065 110.412 178.065 110.413 177.366 156.406C177.015 179.743 160.24 197.489 138.161 197.924C108.155 198.518 87.9913 182.84 86.4466 157.69C83.543 110.413 83.5434 110.412 132.838 110.412ZM25.0003 21.3302C75.3663 22.2108 65.3263 15.0617 66.346 61.5646C66.5722 72.2889 66.3759 83.1301 66.3655 93.8859C66.3655 113.414 66.5615 132.943 66.2835 152.471C66.0467 169.665 55.862 179.404 38.8607 179.382C23.5891 179.382 11.5622 167.544 11.4896 151.803C11.3042 113.255 11.6545 74.7072 11.2532 36.1808C11.1498 25.7218 14.5789 21.1181 25.0003 21.3302ZM105.384 130.567C106.682 147.538 99.2061 166.314 117.238 174.789C125.836 178.82 139.809 179.17 147.687 174.556C163.69 165.168 159.211 147.315 157.913 130.567H105.384ZM29.8821 129.358C29.8821 136.539 29.3564 143.889 30.6644 150.848C31.3027 154.221 35.4738 159.026 38.3157 159.238C41.1583 159.45 46.914 154.762 46.9554 152.142C47.5321 115.313 47.347 78.4728 47.347 41.1134H29.8821V129.358ZM92.6868 85.591C93.3867 79.0148 97.9896 76.5965 106.774 76.9465C125.165 77.6891 143.639 76.5848 161.999 77.6134C163.23 77.7461 164.397 78.2333 165.357 79.0148C170.753 82.9923 170.599 91.8286 164.667 94.9259C163.976 95.3026 163.214 95.523 162.433 95.5724C142.28 96.2516 122.148 96.0182 101.871 95.9543C99.2771 95.9636 96.7998 94.8432 95.0501 92.8693C93.3004 90.8957 92.4427 88.2518 92.6868 85.591ZM119.945 9.54607C127.926 0.40212 135.031 -0.541236 143.465 9.09001C158.15 25.8604 173.72 41.835 187.962 58.9445C190.351 61.8297 187.9 68.9799 187.684 74.1672C183.06 73.6154 176.675 74.8884 174.111 72.2365C159.787 57.4712 146.441 41.761 131.572 24.9162C117.999 40.6048 105.992 54.7871 93.6351 68.6935C88.8566 74.082 84.5214 82.3339 75.6038 73.6789C66.6862 65.0228 74.6664 60.1545 79.4134 54.798C92.8005 39.6292 106.64 24.8104 119.945 9.54607Z" fill="white"/>
</svg>
