<svg width="200" height="200" viewBox="0 0 200 200" fill="none" xmlns="http://www.w3.org/2000/svg">
<path d="M102.209 101.169C102.209 92.8352 102.153 84.5016 102.256 76.1682C102.277 74.5649 102.82 71.6139 103.291 71.5743C109.606 71.0899 116.02 70.4467 122.233 71.2792C123.563 71.4553 124.914 77.3311 124.983 80.6124C125.278 94.9229 125.196 109.242 125.064 123.562C124.987 132.243 119.035 137.537 110.863 135.996C105.861 135.053 102.17 132.239 102.213 126.173C102.273 117.84 102.213 109.506 102.213 101.169H102.209ZM109.867 79.4233V91.2803C109.867 101.094 109.786 110.912 109.919 120.725C109.957 123.658 108.858 127.865 113.792 127.772C118.419 127.697 117.055 123.738 117.132 121.033C117.277 116.131 117.158 111.22 117.158 106.313V79.4102L109.867 79.4235V79.4233ZM41.6357 100.543C41.6357 108.652 41.717 116.761 41.6015 124.869C41.5033 132.009 37.2744 136.053 30.2148 136.044C23.8734 136.044 18.8793 131.128 18.8492 124.592C18.7722 108.586 18.9175 92.5795 18.7509 76.5821C18.708 72.2391 20.132 70.3276 24.4593 70.4157C45.373 70.7813 41.2039 67.8126 41.6273 87.1221C41.7213 91.5752 41.64 96.0768 41.6357 100.543ZM26.4863 78.6303V115.272C26.4863 118.254 26.2681 121.306 26.8113 124.196C27.0763 125.596 28.8082 127.592 29.9882 127.68C31.1685 127.768 33.5586 125.821 33.5757 124.733C33.8152 109.44 33.7382 94.1432 33.7382 78.6303H26.4863ZM69.2373 107.406C88.0172 107.406 88.0172 107.406 87.7265 126.504C87.581 136.194 80.6156 143.563 71.4478 143.743C58.9879 143.99 50.6154 137.48 49.974 127.037C48.7683 107.406 48.7683 107.406 69.2373 107.406ZM57.8375 115.774C58.3763 122.822 55.272 130.618 62.7593 134.137C66.3297 135.811 72.132 135.956 75.4031 134.04C82.048 130.142 80.1879 122.729 79.6492 115.774H57.8375ZM68.7113 71.9045C63.0756 78.419 58.0898 84.3079 52.9588 90.0823C50.9746 92.3198 49.1744 95.7465 45.4714 92.1526C41.7685 88.5583 45.0824 86.5366 47.0535 84.3124C52.6123 78.0137 58.3591 71.8606 63.8836 65.5223C67.1976 61.7254 70.148 61.3336 73.65 65.3329C79.7476 72.2965 86.2127 78.9299 92.1265 86.0344C93.1183 87.2325 92.1007 90.2012 92.0109 92.3551C90.091 92.126 87.44 92.6545 86.3752 91.5534C80.4273 85.4223 74.8857 78.8991 68.7113 71.9045Z" fill="white"/>
<path d="M56.3789 101.402C55.3015 101.406 54.2728 100.941 53.5463 100.121C52.8197 99.3014 52.4634 98.2037 52.5648 97.0988C52.8554 94.3682 54.7668 93.3639 58.4142 93.5092C66.0509 93.8176 73.722 93.3594 81.3461 93.7865C81.8572 93.8416 82.3413 94.0436 82.74 94.3682C84.9806 96.0197 84.9166 99.6889 82.4537 100.975C82.1666 101.131 81.8502 101.223 81.5257 101.244C73.1578 101.526 64.7982 101.429 56.3789 101.402ZM181.237 69.4205C181.408 65.3463 179.903 63.5977 175.836 63.7166C169.221 63.9104 162.581 63.7693 155.974 63.7693C148.936 63.7693 141.898 63.884 134.868 63.7254C131.131 63.6418 129.587 65.2449 129.677 69.0109C129.797 73.9133 129.404 78.842 129.81 83.709C130.237 88.6816 133.252 92.1438 138.118 92.2803C149.702 92.615 161.293 92.615 172.877 92.2803C177.931 92.1438 181.369 89.4307 181.211 83.4711C181.074 78.8023 181.027 74.1025 181.236 69.4205H181.237ZM144.528 84.0084H137.925V71.7594H144.527V84.0086L144.528 84.0084ZM158.638 84.0084H152.044V71.7594H158.647L158.638 84.0086L158.638 84.0084ZM172.749 84.0084H166.168V71.7594H172.77L172.749 84.0084ZM170.495 97.1254C164.278 97.209 157.963 97.8389 151.852 96.9844C141.705 95.5705 136.309 101.653 131.105 108.696C135.552 115.048 135.527 114.929 140.44 110.348C142.62 108.322 145.25 105.758 147.871 105.503C152.107 105.136 156.36 105.023 160.609 105.164H160.635C164.056 105.225 167.477 105.318 170.897 105.247L165.574 115.937C163.511 119.01 161.102 121.836 158.394 124.359C155.564 121.029 153.533 118.633 151.493 116.263C149.453 113.894 146.905 112.405 145.015 115.823C144.19 117.316 144.664 120.549 145.78 121.989C147.782 124.562 150.458 126.574 152.964 128.737C149.704 131.003 146.2 132.896 142.518 134.379C140.996 134.82 139.478 135.26 137.985 135.802C137.681 135.921 137.394 136.08 137.13 136.273C136.823 136.493 136.537 136.741 136.275 137.013C135.492 137.81 135.111 138.935 135.244 140.06C135.376 141.185 136.006 142.184 136.951 142.766C137.559 143.205 138.287 143.449 139.037 143.466C142.886 143.259 146.734 142.074 150.458 140.951C164.287 136.802 177.44 118.849 177.482 104.587C177.499 99.4994 175.498 97.0549 170.495 97.1254Z" fill="white"/>
</svg>
