<svg width="200" height="200" viewBox="0 0 200 200" fill="none" xmlns="http://www.w3.org/2000/svg">
<path d="M144.501 172.237C144.992 172.237 145.467 172.196 145.934 172.112L147.067 172.196L148.667 172.237C156.403 172.237 163.821 169.164 169.291 163.695C174.761 158.225 177.834 150.806 177.834 143.071V100.904C177.834 94.2766 172.461 88.904 165.834 88.904H136.167V34.2373C136.167 27.6099 130.795 22.2373 124.167 22.2373H106.976C106.567 22.2375 104.962 22.5445 103.145 22.9213C99.2958 23.7195 96.329 26.7716 95.5435 30.6235L94.5007 35.7373C93.0755 41.8339 89.2972 46.8945 82.6014 47.2167C75.3612 47.565 71.4541 42.2809 69.559 35.9373L68.3003 30.7346C67.2382 26.3444 63.3715 23.0819 58.8697 22.714C55.8578 22.4678 52.8307 22.2373 51.4423 22.2373C50.1075 22.2373 44.9744 22.2373 39.8341 22.2373C33.2067 22.2373 27.834 27.6099 27.834 34.2373V138.904C27.834 147.456 31.1209 155.681 37.015 161.877C42.9091 168.074 50.9593 171.768 59.5007 172.196L61.1673 172.237H144.501ZM119.501 143.071C119.501 147.546 120.501 151.779 122.309 155.571H61.1673C56.9625 155.572 52.9126 153.984 49.8294 151.125C46.7462 148.266 44.8577 144.347 44.5423 140.154L44.5007 138.904V40.904C44.5007 39.7994 45.3961 38.904 46.5007 38.904H53.1257C54.1163 45.8564 57.5822 52.218 62.8867 56.8202C68.1911 61.4224 74.978 63.9562 82.0007 63.9562C89.0233 63.9562 95.8102 61.4224 101.115 56.8202C106.419 52.218 109.885 45.8564 110.876 38.904H117.501C118.605 38.904 119.501 39.7994 119.501 40.904V143.071ZM94.5007 97.2373C96.7106 97.237 98.8299 96.3588 100.392 94.7961C101.955 93.2333 102.833 91.1139 102.833 88.904C102.833 86.6941 101.955 84.5746 100.392 83.0119C98.8299 81.4491 96.7106 80.571 94.5007 80.5706H69.5007C67.2907 80.571 65.1714 81.4491 63.6089 83.0119C62.0464 84.5746 61.1686 86.6941 61.1686 88.904C61.1686 91.1139 62.0464 93.2333 63.6089 94.7961C65.1714 96.3588 67.2907 97.237 69.5007 97.2373H94.5007ZM148.667 155.571C145.352 155.571 142.173 154.254 139.828 151.909C137.484 149.565 136.167 146.386 136.167 143.071V105.571H159.167C160.272 105.571 161.167 106.466 161.167 107.571V143.071C161.167 146.178 160.01 149.174 157.92 151.474C155.831 153.774 152.96 155.214 149.867 155.512L148.667 155.571ZM94.5007 130.571C96.7108 130.571 98.8304 129.693 100.393 128.13C101.956 126.567 102.834 124.447 102.834 122.237C102.834 120.027 101.956 117.908 100.393 116.345C98.8304 114.782 96.7108 113.904 94.5007 113.904H69.5007C67.2905 113.904 65.1709 114.782 63.6081 116.345C62.0453 117.908 61.1673 120.027 61.1673 122.237C61.1673 124.447 62.0453 126.567 63.6081 128.13C65.1709 129.693 67.2905 130.571 69.5007 130.571H94.5007Z" fill="#363637"/>
</svg>
